<?xml version="1.0" encoding="UTF-8" standalone="no"?>
<!DOCTYPE svg PUBLIC "-//W3C//DTD SVG 1.1//EN" "http://www.w3.org/Graphics/SVG/1.1/DTD/svg11.dtd">
<svg width="100%" height="100%" viewBox="0 0 505 478" version="1.1" xmlns="http://www.w3.org/2000/svg" xmlns:xlink="http://www.w3.org/1999/xlink" xml:space="preserve" xmlns:serif="http://www.serif.com/" style="fill-rule:evenodd;clip-rule:evenodd;stroke-linecap:round;stroke-linejoin:round;stroke-miterlimit:1.5;">
    <g transform="matrix(1,0,0,1,6.96317,-64.8119)">
        <g transform="matrix(-0.759906,0,0,1.24582,888.877,-238.878)">
            <path d="M1112.77,326.042C1147.47,326.042 1175.59,343.199 1175.59,364.363L1175.59,528.527C1175.59,538.69 1168.97,548.437 1157.19,555.624C1145.41,562.81 1129.43,566.847 1112.77,566.847C987.107,566.847 706.103,566.847 580.442,566.847C563.78,566.847 547.8,562.81 536.018,555.624C524.236,548.437 517.617,538.69 517.617,528.527C517.617,466.756 517.617,345.866 517.617,284.095C517.617,273.931 524.236,264.184 536.018,256.998C547.8,249.811 563.78,245.774 580.442,245.774L688.987,245.774C705.649,245.774 721.629,249.811 733.411,256.998C758.486,272.293 803.129,299.524 828.204,314.818C839.986,322.005 855.966,326.042 872.628,326.042L1112.77,326.042Z" style="fill:rgb(195,169,21);stroke:black;stroke-width:4.85px;"/>
        </g>
        <g transform="matrix(1.06435,0,0,0.819389,-48.4791,68.9152)">
            <rect x="88.332" y="140" width="375.816" height="376.15" style="fill:rgb(235,235,235);stroke:black;stroke-width:4.2px;"/>
        </g>
        <g transform="matrix(1.01672,0,0,0.525806,-7.44736,103.589)">
            <path d="M200,185.535L52.113,185.535L200,185.535Z" style="fill:none;stroke:black;stroke-width:6.18px;"/>
        </g>
        <g transform="matrix(1.01672,0,0,0.525806,-7.44736,103.589)">
            <path d="M54.754,185.535L200,185.535" style="fill:none;stroke:black;stroke-width:6.18px;stroke-linecap:square;"/>
        </g>
        <g transform="matrix(1.01672,0,0,0.525806,-7.44736,103.589)">
            <g transform="matrix(1,0,0,1,0,57.3598)">
                <path d="M54.754,185.535L200,185.535" style="fill:none;stroke:black;stroke-width:6.18px;stroke-linecap:square;"/>
            </g>
        </g>
        <g transform="matrix(1.01672,0,0,0.525806,-7.44736,103.589)">
            <g transform="matrix(1,0,0,1,0,57.3598)">
                <path d="M445.537,185.535L300,185.535" style="fill:none;stroke:black;stroke-width:6.18px;stroke-linecap:square;stroke-miterlimit:0;"/>
            </g>
        </g>
        <g transform="matrix(1.01672,0,0,0.525806,-7.44736,103.589)">
            <path d="M445.537,185.535L300,185.535" style="fill:none;stroke:black;stroke-width:6.18px;stroke-linecap:square;stroke-miterlimit:0;"/>
        </g>
        <g transform="matrix(0.759906,0,0,1.01468,-397.804,-35.1661)">
            <path d="M1112.77,326.042C1147.47,326.042 1175.59,347.107 1175.59,373.093C1175.59,415.466 1175.59,477.424 1175.59,519.797C1175.59,532.276 1168.97,544.243 1157.19,553.067C1145.41,561.89 1129.43,566.847 1112.77,566.847C987.107,566.847 706.103,566.847 580.442,566.847C563.78,566.847 547.8,561.89 536.018,553.067C524.236,544.243 517.617,532.276 517.617,519.797C517.617,458.969 517.617,353.652 517.617,292.824C517.617,266.839 545.745,245.774 580.442,245.774L692.663,245.774C707.117,245.774 721.13,249.507 732.337,256.343C757.546,271.72 804.069,300.097 829.278,315.473C840.486,322.31 854.498,326.042 868.952,326.042L1112.77,326.042Z" style="fill:rgb(253,233,37);stroke:black;stroke-width:5.58px;"/>
        </g>
    </g>
</svg>
